<?xml version="1.0" encoding="UTF-8" standalone="no"?>
<!-- Created with Inkscape (http://www.inkscape.org/) -->

<svg
   xmlns:dc="http://purl.org/dc/elements/1.1/"
   xmlns:cc="http://creativecommons.org/ns#"
   xmlns:rdf="http://www.w3.org/1999/02/22-rdf-syntax-ns#"
   xmlns:svg="http://www.w3.org/2000/svg"
   xmlns="http://www.w3.org/2000/svg"
   xmlns:sodipodi="http://sodipodi.sourceforge.net/DTD/sodipodi-0.dtd"
   xmlns:inkscape="http://www.inkscape.org/namespaces/inkscape"
   version="1.1"
   width="490.55084"
   height="140.62529"
   id="svg2"
   inkscape:version="0.48.3.1 r9886"
   sodipodi:docname="pdx.svg">
  <sodipodi:namedview
     pagecolor="#ffffff"
     bordercolor="#666666"
     borderopacity="1"
     objecttolerance="10"
     gridtolerance="10"
     guidetolerance="10"
     inkscape:pageopacity="0"
     inkscape:pageshadow="2"
     inkscape:window-width="1920"
     inkscape:window-height="1030"
     id="namedview2994"
     showgrid="false"
     inkscape:zoom="3.5878034"
     inkscape:cx="245.27542"
     inkscape:cy="70.312645"
     inkscape:window-x="0"
     inkscape:window-y="28"
     inkscape:window-maximized="1"
     inkscape:current-layer="layer1" />
  <defs
     id="defs4" />
  <metadata
     id="metadata7">
    <rdf:RDF>
      <cc:Work
         rdf:about="">
        <dc:format>image/svg+xml</dc:format>
        <dc:type
           rdf:resource="http://purl.org/dc/dcmitype/StillImage" />
        <dc:title />
      </cc:Work>
    </rdf:RDF>
  </metadata>
  <g
     transform="translate(-105.89523,-70.011743)"
     id="layer1">
    <g
       id="text2985"
       style="font-size:144px;font-style:normal;font-variant:normal;font-weight:normal;font-stretch:normal;line-height:125%;letter-spacing:0px;word-spacing:0px;fill:#000000;fill-opacity:1;stroke:none;font-family:Maximum Line Speeder;-inkscape-font-specification:Maximum Line Speeder" />
    <g
       transform="matrix(0.86444818,0,0,0.86444818,59.759563,-150.74149)"
       id="g3065"
       onmouseover="alert(&quot;hover over);">
      <path
         d="m 182.26847,361.68898 -50.64,0 -7.84,35.44 -69.839988,0 25.680003,-115.84 117.199985,0 c 57.46213,0 63.33356,21.24524 61.33006,38.76311 -2.7369,23.93037 -16.47406,41.63689 -75.89006,41.63689 z m -14,-55.04 -24.4,0.08 -6.56,29.52 25.6,0 c 22.33144,0 24.82969,-6.01204 27.0958,-15.81708 2.54637,-11.0177 -6.75108,-13.83205 -21.7358,-13.78292 z"
         id="p"
         style="font-size:144px;font-style:normal;font-variant:normal;font-weight:normal;font-stretch:normal;line-height:125%;letter-spacing:0px;word-spacing:0px;fill:#333333;fill-opacity:1;stroke:none;font-family:Maximum Line Speeder;-inkscape-font-specification:Maximum Line Speeder" />
      <path
         d="m 232.28125,278.90625 -0.40625,1.78125 c 26.18198,6.56194 30.15198,23.73072 26.3538,40.59622 -4.03311,17.90866 -19.3955,32.97332 -42.82255,33.81003 l -8.8125,39.71875 108.875,0 c 12.71053,0 24.11346,-0.78712 34.1875,-2.34375 L 410.6875,347.25 c 1.80505,-5.11433 4.80132,-20.73881 2.3125,-30.53125 L 378.5625,283.9375 c -10.83045,-3.34895 -23.87809,-5.03117 -39.15625,-5.03125 z m 64.25,25.4375 24.40625,0 c 24.4956,0 27.59266,22.17096 22.08697,39.13631 -7.05942,21.75301 -22.37862,25.89494 -36.80572,25.89494 l -24.09375,0 z"
         id="d"
         style="font-size:144px;font-style:normal;font-variant:normal;font-weight:normal;font-stretch:normal;line-height:125%;letter-spacing:0px;word-spacing:0px;fill:#333333;fill-opacity:1;stroke:none;font-family:Maximum Line Speeder;-inkscape-font-specification:Maximum Line Speeder" />
      <path
         d="m 620.84291,255.36896 -111.69187,82.89171 66.78001,66.82616 -66.11122,0 -39.59315,-37.87146 -68.57742,50.82995 -82.48,0 114.81742,-85.14995 -56.64,-53.92 72.56,0 24.12944,24.14612 64.32679,-47.75253"
         id="x"
         style="font-size:144px;font-style:normal;font-variant:normal;font-weight:normal;font-stretch:normal;line-height:125%;letter-spacing:0px;word-spacing:0px;fill:#aa0000;fill-opacity:1;stroke:none;font-family:Maximum Line Speeder;-inkscape-font-specification:Maximum Line Speeder" />
    </g>
  </g>
</svg>
